<svg version="1.1" id="Layer_1" xmlns="http://www.w3.org/2000/svg" xmlns:xlink="http://www.w3.org/1999/xlink" x="0px" y="0px"
	 width="100%" viewBox="0 0 1000 1000" enable-background="new 0 0 1000 1000" xml:space="preserve">
<path fill="#FFFFFF" opacity="1.000000" stroke="none" 
	d="
M881.000000,1001.000000 
	C587.333313,1001.000000 294.166656,1001.000000 1.000000,1001.000000 
	C1.000000,667.666687 1.000000,334.333344 1.000000,1.000000 
	C334.333344,1.000000 667.666687,1.000000 1001.000000,1.000000 
	C1001.000000,334.333344 1001.000000,667.666687 1001.000000,1001.000000 
	C961.166687,1001.000000 921.333313,1001.000000 881.000000,1001.000000 
M181.544357,548.091003 
	C178.347473,555.873779 169.906342,557.454651 163.761536,563.245667 
	C168.798386,561.627319 173.016632,560.271973 177.368134,558.873840 
	C176.038879,562.725342 174.906464,566.006531 173.790329,569.240540 
	C178.747986,565.132874 183.623993,561.512024 187.990509,557.355896 
	C192.262222,553.289917 196.393097,549.029297 193.667633,541.963684 
	C192.171341,538.084534 193.826614,534.519348 197.304871,531.975464 
	C200.189316,533.285095 202.950607,534.538818 205.711884,535.792480 
	C205.957947,535.255188 206.204025,534.717896 206.450089,534.180603 
	C199.320602,530.838013 192.191132,527.495422 185.061646,524.152832 
	C184.855133,524.566040 184.648621,524.979309 184.442108,525.392578 
	C185.501373,526.020752 186.560623,526.648926 188.054642,527.534912 
	C183.198242,530.802551 183.728500,535.457336 184.324081,540.127258 
	C184.533783,541.771545 185.028229,543.435303 184.906830,545.053711 
	C184.696808,547.853577 183.706146,548.143494 180.903931,545.839539 
	C174.647873,542.415588 168.361725,539.044617 162.161957,535.521545 
	C160.968491,534.843384 159.272018,533.597046 159.237610,532.565063 
	C158.987244,525.056702 159.102951,517.536133 159.102951,509.075714 
	C162.380798,510.439484 164.071350,511.086578 165.715485,511.835602 
	C182.484222,519.474976 199.373611,526.866516 215.948685,534.905884 
	C223.063431,538.356689 228.441284,538.286987 234.884598,532.976196 
	C251.045547,519.655701 267.854736,507.121643 284.881409,494.873199 
	C285.051910,495.063019 285.222382,495.252869 285.195496,496.285919 
	C285.382080,500.773499 285.568695,505.261078 285.755280,509.748627 
	C286.592407,510.010773 286.453003,510.334839 286.212677,510.541809 
	C266.024323,527.929199 245.866104,545.352295 225.538513,562.575500 
	C224.315979,563.611389 221.471008,563.739258 219.836517,563.108704 
	C212.551834,560.298462 205.375000,557.184265 198.280426,553.916687 
	C195.109619,552.456360 193.328354,553.256531 191.736877,556.949768 
	C201.976196,561.525146 212.030960,566.223206 222.298950,570.396729 
	C223.940308,571.063782 226.925125,569.911377 228.614700,568.677246 
	C232.633652,565.741638 236.288986,562.298401 240.020340,558.980591 
	C257.811859,543.160400 275.608643,527.345764 293.333588,511.451172 
	C297.259033,507.931061 297.006012,506.657684 292.633331,504.818939 
	C287.120453,502.500732 286.256134,501.213898 288.646545,495.664948 
	C290.169739,492.129120 292.676331,488.893158 295.261871,485.984863 
	C296.825562,484.225891 299.383362,483.350677 301.494507,482.078369 
	C300.976715,481.339539 300.458923,480.600708 299.941162,479.861877 
	C297.876556,478.886627 295.869232,477.758636 293.738373,476.960114 
	C275.525330,470.134491 257.251251,463.469666 239.082672,456.528473 
	C232.944458,454.183411 227.704514,454.711121 222.272507,458.599792 
	C201.424500,473.524506 180.322998,488.095825 159.527084,503.091644 
	C156.638153,505.174866 154.216995,508.595032 152.818008,511.917816 
	C149.578247,519.612488 150.758728,527.605652 152.988083,535.402405 
	C153.290848,536.461243 154.388840,537.544434 155.401550,538.107483 
	C161.621704,541.565674 167.986633,544.766174 174.169495,548.287537 
	C177.018509,549.910217 179.118408,549.536865 181.544357,548.091003 
M514.186218,534.527588 
	C514.186218,526.542725 514.186218,518.557922 514.186218,510.573059 
	C515.645569,512.070190 516.394836,513.674255 517.092834,515.300415 
	C521.475891,525.512329 525.940613,535.690613 530.182922,545.960876 
	C532.243896,550.950378 536.364258,548.723145 539.631104,548.698608 
	C540.384644,548.692932 541.741882,545.412781 541.757080,543.630371 
	C541.914612,525.155762 541.854248,506.679291 541.853943,488.203339 
	C541.853821,480.132782 540.720276,479.151367 532.563538,480.268768 
	C531.765198,480.378143 531.006165,480.774658 530.183533,481.053253 
	C530.183533,493.488495 530.183533,505.839386 530.183533,518.190247 
	C528.705261,517.004883 528.005859,515.734192 527.458435,514.401123 
	C523.239258,504.127289 518.948975,493.880829 514.893555,483.542389 
	C512.899902,478.459991 508.788788,480.753387 505.538147,480.632690 
	C501.804504,480.493988 502.863312,483.713074 502.845856,485.826630 
	C502.770325,494.980743 502.813721,504.135834 502.813751,513.290588 
	C502.813812,525.084595 502.813812,536.878601 502.813812,548.647583 
	C516.652344,549.379211 514.529846,550.516235 514.346497,537.993042 
	C514.334412,537.166321 514.241638,536.340759 514.186218,534.527588 
M721.461975,508.509583 
	C721.356628,518.662476 721.207886,528.815186 721.157837,538.968384 
	C721.104919,549.703003 721.146301,549.706787 731.825806,548.855164 
	C732.114990,548.832092 732.381287,548.522095 733.186646,548.009766 
	C733.186646,540.386169 733.056274,532.415833 733.306030,524.457397 
	C733.351379,523.013550 734.823303,520.518250 735.859924,520.395630 
	C739.894409,519.918396 744.018799,520.201111 748.524475,520.201111 
	C748.524475,530.112366 748.524475,539.354065 748.524475,549.010803 
	C751.419006,549.010803 753.891296,548.855469 756.335876,549.049194 
	C759.568909,549.305359 760.264893,547.699646 760.245728,544.853638 
	C760.112427,525.040344 759.980652,505.225769 760.096008,485.413055 
	C760.118530,481.534973 759.023193,479.676239 755.064941,480.168304 
	C751.705566,480.585938 747.495728,479.390320 747.876343,485.545319 
	C748.346497,493.147400 747.988831,500.800659 747.988831,508.115356 
	C742.810181,508.115356 737.972900,508.115356 733.187378,508.115356 
	C733.187378,501.094727 733.094849,494.774719 733.211060,488.458557 
	C733.352783,480.752136 733.406006,480.995544 725.941711,480.299652 
	C721.890503,479.921997 720.996033,481.506592 721.107117,485.053955 
	C721.341370,492.534973 721.357910,500.022827 721.461975,508.509583 
M772.337341,540.006409 
	C777.508179,547.970032 785.683655,550.954285 795.342224,548.403992 
	C803.847534,546.158081 808.103943,540.747925 808.442810,530.151611 
	C808.926941,515.012573 808.751831,499.853455 809.074951,484.707550 
	C809.179382,479.810699 805.991821,480.431946 803.039246,480.485199 
	C800.160828,480.537079 796.901001,479.769745 797.065247,484.735474 
	C797.406555,495.050995 797.564697,505.384949 797.344543,515.701660 
	C797.228638,521.134033 796.745667,526.702942 795.354004,531.923767 
	C793.924011,537.288391 787.432739,538.879578 784.426880,534.957886 
	C783.014160,533.114685 782.158752,530.420044 782.062134,528.069702 
	C781.734619,520.101013 781.840332,512.113892 781.815613,504.133636 
	C781.791443,496.356781 781.810303,488.579803 781.810303,480.459656 
	C779.963867,480.459656 778.320862,480.460022 776.677795,480.459625 
	C769.488647,480.457886 769.422119,480.467773 769.464294,487.660004 
	C769.539490,500.480072 769.516113,513.305054 769.906067,526.116638 
	C770.040588,530.535339 771.283752,534.920166 772.337341,540.006409 
M589.821167,544.137207 
	C589.923584,545.706055 590.026001,547.274902 590.116272,548.657593 
	C594.017639,548.657593 597.426941,548.657593 601.450195,548.657593 
	C601.450195,540.155212 601.450195,531.993530 601.450195,523.831909 
	C601.876282,523.735535 602.302368,523.639099 602.728455,523.542664 
	C606.207031,530.955627 609.621948,538.399841 613.224609,545.751953 
	C613.852783,547.033997 615.181030,548.717712 616.344604,548.853088 
	C619.860840,549.262329 623.455139,549.000977 628.171570,549.000977 
	C622.986328,538.389771 618.297546,528.794495 613.747437,519.483032 
	C616.345886,516.654846 618.863831,514.415894 620.770630,511.741364 
	C625.720520,504.798889 625.296082,497.286316 621.889526,489.953369 
	C618.664429,483.011230 612.697266,480.267273 605.199829,480.469147 
	C602.036682,480.554321 598.835571,480.775635 595.711853,480.414673 
	C591.051941,479.876190 589.699341,481.737000 589.743103,486.246826 
	C589.927673,505.234100 589.821289,524.224243 589.821167,544.137207 
M484.987427,485.520294 
	C480.801636,483.839447 476.728302,481.705322 472.392365,480.629700 
	C469.254578,479.851227 465.737946,480.762115 462.444550,480.410675 
	C457.481873,479.881134 455.766388,481.522827 455.871094,486.736969 
	C456.198578,503.047791 455.991425,519.369324 455.991425,535.686707 
	C455.991425,539.974915 455.991425,544.263123 455.991425,548.772705 
	C459.885437,548.772705 463.314301,548.772705 467.585388,548.772705 
	C467.585388,540.261414 467.585388,531.836609 467.585388,523.411743 
	C468.001953,523.355530 468.418518,523.299316 468.835083,523.243042 
	C472.396271,530.847534 475.840942,538.510803 479.625183,546.002625 
	C480.312927,547.364197 482.297150,548.648254 483.843811,548.876160 
	C486.889679,549.325195 490.048431,549.008484 494.407593,549.008484 
	C489.250885,538.522522 484.538727,528.940430 479.881744,519.470581 
	C492.300262,506.940399 493.817383,497.619934 484.987427,485.520294 
M851.010681,528.477478 
	C850.760254,521.704407 848.846497,515.724060 842.658630,511.757538 
	C843.927673,510.079987 845.064514,508.667023 846.105469,507.186646 
	C852.220520,498.489563 847.603271,484.089203 837.336914,481.463837 
	C831.536072,479.980438 825.317200,480.131775 818.857727,479.505157 
	C818.574280,483.869720 818.189880,487.167114 818.175171,490.466156 
	C818.108521,505.453583 818.145935,520.441406 818.145935,535.429138 
	C818.145935,548.075317 818.145996,548.075378 830.756348,548.011230 
	C842.967346,547.949097 849.814819,541.645447 851.010681,528.477478 
M414.084747,511.399109 
	C411.416870,523.535828 408.749023,535.672607 406.068634,547.866394 
	C416.611847,548.765137 416.611847,548.765137 419.973297,539.262878 
	C427.666840,538.255005 435.575562,536.817932 436.129822,547.807617 
	C440.113464,547.807617 443.358368,547.807617 446.978302,547.807617 
	C442.134216,525.175232 437.384521,502.983826 432.622223,480.733582 
	C428.610748,480.733582 424.846832,480.733582 420.845703,480.733582 
	C418.624329,490.806183 416.445068,500.687683 414.084747,511.399109 
M386.390991,517.190002 
	C397.413513,517.190491 398.153290,516.305054 395.473297,505.772217 
	C390.483276,505.772217 385.378113,505.772217 380.013672,505.772217 
	C380.013672,501.884216 380.075500,498.411133 379.993622,494.941437 
	C379.930847,492.280029 381.305634,491.484100 383.720764,491.524719 
	C388.018799,491.597046 392.318909,491.545074 396.595215,491.545074 
	C396.595215,487.356140 396.595215,483.811401 396.595215,480.145996 
	C388.211334,480.145996 380.241241,480.265350 372.277740,480.087708 
	C369.055115,480.015839 367.910950,481.019104 367.908478,484.344299 
	C367.898590,497.660217 367.597168,510.975647 367.471466,524.291870 
	C367.399567,531.909363 367.458466,539.528076 367.458466,548.013611 
	C376.392487,548.013611 384.346497,547.888550 392.294067,548.060425 
	C397.070190,548.163696 397.086670,545.244324 397.057739,541.800781 
	C397.027374,538.184082 396.902161,534.975647 391.968109,535.122681 
	C388.033875,535.239868 384.093353,535.146423 379.857697,535.146423 
	C379.857697,530.604370 380.157471,526.607605 379.778992,522.676147 
	C379.342560,518.142883 381.131317,516.537415 386.390991,517.190002 
M577.691895,535.261536 
	C572.939636,535.261536 568.187317,535.261536 563.190308,535.261536 
	C563.190308,533.294434 563.138245,532.135437 563.199646,530.982483 
	C563.427185,526.709839 562.208313,521.217346 564.405701,518.548645 
	C566.210693,516.356506 572.089233,517.288269 576.165649,517.254700 
	C581.274109,517.212585 579.771240,513.539124 579.986511,510.841248 
	C580.211304,508.025391 580.171448,505.459595 575.996826,505.751404 
	C571.925415,506.035950 567.818542,505.813232 563.581665,505.813232 
	C563.581665,501.805847 563.619934,498.529846 563.570557,495.255157 
	C563.523804,492.160522 565.131958,491.357635 567.985962,491.492645 
	C572.087036,491.686584 576.204102,491.542114 580.731201,491.542114 
	C580.536926,487.148621 580.380798,483.616486 580.227417,480.146851 
	C571.392761,480.146851 563.240173,479.998505 555.104614,480.303070 
	C553.851929,480.349976 551.636963,482.465759 551.621399,483.647797 
	C551.358948,503.618134 551.422668,523.592468 551.285217,543.565063 
	C551.259949,547.233704 553.104980,548.082581 556.254211,548.036560 
	C561.912659,547.953857 567.585083,548.238098 573.227478,547.928467 
	C575.606079,547.797852 579.843445,546.712036 579.922424,545.779724 
	C580.202759,542.470337 579.055115,539.039917 577.691895,535.261536 
M674.747253,508.756683 
	C672.753601,506.777039 670.392700,505.044464 668.854919,502.758209 
	C666.703430,499.559448 666.080322,495.728210 668.818237,492.565491 
	C671.344421,489.647369 674.740845,490.209442 677.993958,491.663605 
	C679.016174,492.120544 680.101257,492.436920 681.532776,492.952881 
	C682.289429,491.084839 682.859558,489.385071 683.645935,487.792084 
	C685.749512,483.530731 684.336914,481.578369 679.795410,480.587219 
	C671.416382,478.758545 663.077942,481.760193 658.953003,488.600159 
	C654.456299,496.056427 655.192871,504.566437 661.304260,511.041412 
	C665.399963,515.380859 669.960571,519.277893 674.221924,523.465637 
	C677.706238,526.889832 678.488892,532.876648 676.052490,536.219299 
	C673.633545,539.538025 667.667480,540.326233 663.326538,537.836426 
	C661.771729,536.944641 660.307983,535.894104 658.818604,534.926392 
	C652.690430,543.551208 654.187561,547.405457 663.934937,548.917358 
	C665.246521,549.120789 666.577026,549.231445 667.903198,549.307617 
	C675.473816,549.742615 682.246826,548.012939 686.440125,541.133484 
	C690.647461,534.230957 690.227783,526.957031 685.777100,520.453918 
	C682.914246,516.270813 678.852478,512.908325 674.747253,508.756683 
M342.507324,548.851929 
	C346.667603,548.851135 350.842133,549.039307 354.978943,548.727661 
	C356.134094,548.640625 357.965302,547.197876 358.122345,546.168884 
	C358.557251,543.318787 358.273010,540.358948 358.273010,536.992310 
	C352.316986,536.992310 347.247345,536.992310 341.939484,536.992310 
	C341.939484,530.062195 341.949951,523.602417 341.937103,517.142578 
	C341.915955,506.495697 341.812714,495.848358 341.887543,485.202209 
	C341.912506,481.651093 340.730133,479.922272 336.935181,480.441345 
	C334.709259,480.745850 332.434357,480.692200 330.256653,480.796051 
	C330.256653,503.734924 330.256653,526.117920 330.256653,548.864868 
	C334.295288,548.864868 337.906952,548.864868 342.507324,548.851929 
M635.671753,491.126038 
	C635.892822,492.232147 636.113892,493.338257 636.334900,494.444366 
	C636.901123,494.557220 637.467346,494.670105 638.033508,494.782959 
	C641.071777,488.734741 644.110046,482.686554 647.230286,476.475128 
	C638.541626,475.296356 638.418213,475.362122 636.973206,483.025116 
	C636.513489,485.462616 636.195435,487.926849 635.671753,491.126038 
M221.904709,547.159485 
	C222.277863,545.397278 222.651016,543.635071 223.044830,541.775391 
	C219.396881,546.937134 219.086441,551.084167 221.865906,557.572266 
	C221.865906,554.302734 221.865906,551.152100 221.904709,547.159485 
M207.474014,536.493103 
	C207.474014,536.493103 207.513199,536.491394 207.474014,536.493103 
z"/>
<path fill="#616161" opacity="1.000000" stroke="none" 
	d="
M284.403931,494.272156 
	C267.854736,507.121643 251.045547,519.655701 234.884598,532.976196 
	C228.441284,538.286987 223.063431,538.356689 215.948685,534.905884 
	C199.373611,526.866516 182.484222,519.474976 165.715485,511.835602 
	C164.071350,511.086578 162.380798,510.439484 159.102951,509.075714 
	C159.102951,517.536133 158.987244,525.056702 159.237610,532.565063 
	C159.272018,533.597046 160.968491,534.843384 162.161957,535.521545 
	C168.361725,539.044617 174.647873,542.415588 181.001984,546.229736 
	C181.100037,546.619934 181.022903,547.034363 181.022903,547.034363 
	C179.118408,549.536865 177.018509,549.910217 174.169495,548.287537 
	C167.986633,544.766174 161.621704,541.565674 155.401550,538.107483 
	C154.388840,537.544434 153.290848,536.461243 152.988083,535.402405 
	C150.758728,527.605652 149.578247,519.612488 152.818008,511.917816 
	C154.216995,508.595032 156.638153,505.174866 159.527084,503.091644 
	C180.322998,488.095825 201.424500,473.524506 222.272507,458.599792 
	C227.704514,454.711121 232.944458,454.183411 239.082672,456.528473 
	C257.251251,463.469666 275.525330,470.134491 293.738373,476.960114 
	C295.869232,477.758636 297.876556,478.886627 299.941162,479.861877 
	C300.458923,480.600708 300.976715,481.339539 301.494507,482.078369 
	C299.383362,483.350677 296.825562,484.225891 295.261871,485.984863 
	C292.676331,488.893158 290.169739,492.129120 288.646545,495.664948 
	C286.256134,501.213898 287.120453,502.500732 292.633331,504.818939 
	C297.006012,506.657684 297.259033,507.931061 293.333588,511.451172 
	C275.608643,527.345764 257.811859,543.160400 240.020340,558.980591 
	C236.288986,562.298401 232.633652,565.741638 228.614700,568.677246 
	C226.925125,569.911377 223.940308,571.063782 222.298950,570.396729 
	C212.030960,566.223206 201.976196,561.525146 191.736877,556.949768 
	C193.328354,553.256531 195.109619,552.456360 198.280426,553.916687 
	C205.375000,557.184265 212.551834,560.298462 219.836517,563.108704 
	C221.471008,563.739258 224.315979,563.611389 225.538513,562.575500 
	C245.866104,545.352295 266.024323,527.929199 286.212677,510.541809 
	C286.453003,510.334839 286.592407,510.010773 285.755280,509.748627 
	C285.568695,505.261078 285.382080,500.773499 285.473053,495.771973 
	C285.750610,495.258057 286.077148,495.021423 286.298889,494.860443 
	C286.751556,493.905945 286.982452,493.112427 287.213379,492.318909 
	C286.825439,492.445007 286.437531,492.571075 285.840393,492.893066 
	C285.222107,493.483337 284.813019,493.877747 284.403931,494.272156 
M177.815948,497.904053 
	C177.537781,500.086609 177.259598,502.269196 176.962997,504.596375 
	C180.687820,506.231964 184.156113,507.754913 187.624390,509.277863 
	C184.398895,505.618469 177.553741,505.405304 179.683762,497.915039 
	C179.687881,497.661163 179.691986,497.407318 179.696106,497.153442 
	C179.324417,497.294220 178.952728,497.434967 177.815948,497.904053 
M264.744415,471.778595 
	C258.338318,469.378723 251.932236,466.978821 245.526138,464.578949 
	C245.377335,465.001526 245.228531,465.424072 245.079727,465.846649 
	C254.279572,469.324188 263.479431,472.801697 272.679260,476.279236 
	C272.825836,475.913849 272.972412,475.548431 273.118988,475.183044 
	C270.577026,474.111877 268.035065,473.040741 264.744415,471.778595 
M287.127563,482.544647 
	C288.341766,482.104309 289.555969,481.663971 290.770172,481.223633 
	C290.372803,480.429047 290.168365,479.259399 289.530914,478.931488 
	C288.666138,478.486572 287.469788,478.686218 286.415649,478.609375 
	C286.439728,479.806152 286.463837,481.002960 287.127563,482.544647 
M202.421799,516.015076 
	C205.417938,517.493591 208.414078,518.972107 211.410217,520.450684 
	C211.633560,519.917114 211.856918,519.383545 212.080261,518.849976 
	C208.742203,517.686340 205.404144,516.522766 202.421799,516.015076 
M277.986694,481.101929 
	C278.483948,481.370392 278.981171,481.638855 279.478394,481.907318 
	C281.249939,478.479248 279.414490,476.592560 274.687439,476.498627 
	C275.646484,477.628967 276.811554,479.002136 277.986694,481.101929 
M195.422180,513.075989 
	C196.475067,513.400452 197.527954,513.724976 198.580841,514.049438 
	C196.411942,511.950256 193.938736,510.738617 191.434052,509.595978 
	C190.751511,509.284576 189.974197,509.180878 189.240372,508.981873 
	C189.125473,509.249451 189.010574,509.517059 188.895676,509.784637 
	C190.841217,510.784332 192.786758,511.784058 195.422180,513.075989 
M233.676102,522.237244 
	C230.598053,521.989075 227.520020,521.740906 224.441971,521.492798 
	C224.422562,521.989380 224.403152,522.486023 224.383728,522.982605 
	C227.424622,522.982605 230.465500,522.982605 233.676102,522.237244 
M228.025253,463.070282 
	C227.770340,463.098694 227.503830,463.093658 227.267349,463.175415 
	C227.193497,463.200958 227.120041,463.521484 227.182556,463.604675 
	C228.776047,465.725037 234.055466,465.309265 235.820251,462.678772 
	C233.237778,462.968658 230.862762,463.235229 228.025253,463.070282 
M216.619797,522.829956 
	C218.608292,523.374146 220.596786,523.918396 222.585281,524.462646 
	C222.631058,524.134644 222.676849,523.806702 222.722641,523.478699 
	C220.621262,522.684875 218.519897,521.890991 216.418518,521.097168 
	C216.278015,521.536438 216.137497,521.975708 216.619797,522.829956 
M230.675476,529.514465 
	C228.879761,526.721313 227.870819,529.589172 226.471588,529.648743 
	C226.546173,530.070435 226.620758,530.492065 226.695328,530.913696 
	C227.890289,530.631714 229.085236,530.349792 230.675476,529.514465 
M275.344391,488.569916 
	C275.863403,488.839935 276.382416,489.109924 276.901428,489.379944 
	C277.126099,488.841675 277.350769,488.303436 277.575439,487.765198 
	C276.923004,487.857208 276.270569,487.949219 275.344391,488.569916 
M269.416199,493.698608 
	C269.631470,493.988800 269.846710,494.278992 270.061951,494.569214 
	C270.246857,494.392059 270.431732,494.214874 270.616608,494.037689 
	C270.336609,493.809204 270.056610,493.580750 269.416199,493.698608 
M249.702728,510.578979 
	C249.991074,510.303375 250.282227,510.030396 250.552399,509.738007 
	C250.559540,509.730255 250.339005,509.512146 250.224640,509.392120 
	C249.936127,509.668182 249.647614,509.944275 249.702728,510.578979 
M187.296097,491.426666 
	C187.006470,491.703125 186.716827,491.979584 186.427200,492.256012 
	C186.542053,492.376099 186.656906,492.496216 186.771759,492.616364 
	C187.061295,492.339447 187.350815,492.062561 187.296097,491.426666 
M265.298676,497.428680 
	C265.009430,497.705048 264.720184,497.981445 264.430939,498.257812 
	C264.545746,498.377808 264.660522,498.497833 264.775269,498.617828 
	C265.064331,498.341125 265.353424,498.064423 265.298676,497.428680 
M259.575897,503.300446 
	C259.360565,503.010132 259.145233,502.719818 258.929871,502.429535 
	C258.745178,502.606812 258.560516,502.784058 258.375824,502.961334 
	C258.655731,503.189667 258.935669,503.417999 259.575897,503.300446 
M253.788696,506.379028 
	C253.740250,506.737335 253.691818,507.095642 253.643387,507.453949 
	C253.899536,507.456390 254.155685,507.458801 254.411835,507.461243 
	C254.372543,507.101868 254.333267,506.742493 253.788696,506.379028 
M241.616089,516.792297 
	C241.258133,516.743958 240.900192,516.695618 240.542236,516.647278 
	C240.539597,516.903503 240.536972,517.159790 240.534348,517.416077 
	C240.893402,517.376465 241.252457,517.336853 241.616089,516.792297 
M245.575897,514.300659 
	C245.360550,514.010376 245.145203,513.720154 244.929840,513.429871 
	C244.745148,513.607117 244.560455,513.784302 244.375763,513.961548 
	C244.655685,514.189880 244.935623,514.418152 245.575897,514.300659 
M223.693954,466.581482 
	C223.983032,466.366486 224.272110,466.151459 224.561172,465.936432 
	C224.384384,465.751892 224.207581,465.567352 224.030792,465.382782 
	C223.803543,465.662231 223.576279,465.941711 223.693954,466.581482 
M220.379822,468.209167 
	C220.780396,468.213776 221.180954,468.218414 221.581512,468.223022 
	C221.582230,468.056793 221.594406,467.746277 221.581985,467.745270 
	C221.183792,467.713623 220.783218,467.711884 220.379822,468.209167 
M213.378967,473.208466 
	C213.779144,473.212769 214.179306,473.217072 214.579483,473.221375 
	C214.580429,473.055328 214.592682,472.745056 214.580719,472.744110 
	C214.182800,472.712982 213.782593,472.711365 213.378967,473.208466 
M211.299622,474.428314 
	C211.011642,474.703491 210.723663,474.978668 210.435669,475.253845 
	C210.550232,475.373413 210.757980,475.603302 210.765915,475.596619 
	C211.069611,475.340057 211.354950,475.061798 211.299622,474.428314 
M207.616013,477.792023 
	C207.258011,477.743713 206.900009,477.695374 206.542007,477.647064 
	C206.539322,477.903259 206.536636,478.159454 206.533951,478.415619 
	C206.893143,478.376068 207.252319,478.336517 207.616013,477.792023 
M203.379822,480.209167 
	C203.780396,480.213776 204.180954,480.218414 204.581528,480.223022 
	C204.582230,480.056793 204.594406,479.746277 204.581985,479.745270 
	C204.183792,479.713593 203.783218,479.711884 203.379822,480.209167 
M197.611771,484.796356 
	C197.210754,484.791779 196.809723,484.787201 196.408707,484.782623 
	C196.407303,484.949127 196.394653,485.260284 196.406097,485.261200 
	C196.805481,485.292206 197.207138,485.294006 197.611771,484.796356 
M193.794952,486.385193 
	C193.791885,486.784424 193.784500,487.183899 193.806610,487.581696 
	C193.807281,487.593597 194.117050,487.588318 194.282700,487.591064 
	C194.287231,487.191559 194.291748,486.792084 193.794952,486.385193 
M190.297089,489.419281 
	C190.006882,489.634674 189.716675,489.850098 189.426453,490.065491 
	C189.603302,490.250366 189.780151,490.435242 189.957016,490.620117 
	C190.185516,490.340027 190.414001,490.059937 190.297089,489.419281 
M172.823318,502.976929 
	C172.727310,502.568298 172.631287,502.159668 172.535278,501.751038 
	C172.414139,501.841034 172.180466,501.946533 172.190384,502.018433 
	C172.247681,502.433228 172.362518,502.840118 172.823318,502.976929 
M234.675430,459.644989 
	C234.424774,459.524841 234.174133,459.404694 233.923477,459.284546 
	C233.850876,459.524628 233.778259,459.764740 233.705658,460.004822 
	C234.050247,460.031006 234.394852,460.057190 234.675430,459.644989 
M200.842438,482.042389 
	C200.587280,482.194794 200.200607,482.297638 200.118622,482.515259 
	C200.053131,482.689117 200.358597,483.002686 200.499390,483.254242 
	C200.640594,483.002411 200.781784,482.750580 200.842438,482.042389 
M183.173996,494.027130 
	C183.270538,494.437317 183.367096,494.847534 183.463638,495.257721 
	C183.585678,495.167725 183.821014,495.061981 183.811050,494.990326 
	C183.753189,494.573883 183.637680,494.165497 183.173996,494.027130 
M217.824585,470.973694 
	C217.728455,470.564667 217.632324,470.155670 217.536194,469.746643 
	C217.414688,469.836487 217.180359,469.941956 217.190277,470.013611 
	C217.247772,470.428833 217.362793,470.836090 217.824585,470.973694 
M237.926956,519.479675 
	C237.779861,519.232666 237.632782,518.985718 237.485703,518.738708 
	C237.349365,518.993408 237.049423,519.313171 237.118301,519.486206 
	C237.203339,519.699768 237.595032,519.791199 237.926956,519.479675 
M230.759750,458.821838 
	C230.589645,458.878387 230.419540,458.934906 230.249435,458.991455 
	C230.420578,459.046387 230.591721,459.101349 230.759750,458.821838 
M238.818481,463.236084 
	C238.876068,463.409058 238.933655,463.582001 238.991257,463.754974 
	C239.047089,463.580933 239.102936,463.406860 238.818481,463.236084 
M242.756622,463.992584 
	C242.672913,464.215027 242.589203,464.437439 242.505508,464.659912 
	C242.909134,464.667694 243.312744,464.675507 243.716354,464.683289 
	C243.618713,464.462250 243.521072,464.241241 242.756622,463.992584 
M281.475189,484.383118 
	C281.530853,484.164764 281.586517,483.946442 281.642181,483.728088 
	C281.504608,483.868530 281.367035,484.009003 281.475189,484.383118 
M200.509003,514.110046 
	C200.430817,514.310608 200.352646,514.511169 200.274475,514.711731 
	C200.495651,514.649658 200.716843,514.587585 200.509003,514.110046 
M213.059311,520.500916 
	C213.276901,520.575378 213.494492,520.649780 213.712097,520.724182 
	C213.645325,520.519714 213.578552,520.315186 213.059311,520.500916 
M274.517334,491.409637 
	C274.517334,491.409637 274.584930,491.522461 274.517334,491.409637 
M237.591385,461.518097 
	C237.591385,461.518097 237.476624,461.587708 237.591385,461.518097 
M225.517349,527.411072 
	C225.517349,527.411072 225.584641,527.523621 225.517349,527.411072 
M278.517242,485.411133 
	C278.517242,485.411133 278.584625,485.523743 278.517242,485.411133 
z"/>
<path fill="#161616" opacity="1.000000" stroke="none" 
	d="
M514.186340,535.021118 
	C514.241638,536.340759 514.334412,537.166321 514.346497,537.993042 
	C514.529846,550.516235 516.652344,549.379211 502.813812,548.647583 
	C502.813812,536.878601 502.813812,525.084595 502.813751,513.290588 
	C502.813721,504.135834 502.770325,494.980743 502.845856,485.826630 
	C502.863312,483.713074 501.804504,480.493988 505.538147,480.632690 
	C508.788788,480.753387 512.899902,478.459991 514.893555,483.542389 
	C518.948975,493.880829 523.239258,504.127289 527.458435,514.401123 
	C528.005859,515.734192 528.705261,517.004883 530.183533,518.190247 
	C530.183533,505.839386 530.183533,493.488495 530.183533,481.053253 
	C531.006165,480.774658 531.765198,480.378143 532.563538,480.268768 
	C540.720276,479.151367 541.853821,480.132782 541.853943,488.203339 
	C541.854248,506.679291 541.914612,525.155762 541.757080,543.630371 
	C541.741882,545.412781 540.384644,548.692932 539.631104,548.698608 
	C536.364258,548.723145 532.243896,550.950378 530.182922,545.960876 
	C525.940613,535.690613 521.475891,525.512329 517.092834,515.300415 
	C516.394836,513.674255 515.645569,512.070190 514.186218,510.573059 
	C514.186218,518.557922 514.186218,526.542725 514.186340,535.021118 
z"/>
<path fill="#161616" opacity="1.000000" stroke="none" 
	d="
M721.462891,508.008728 
	C721.357910,500.022827 721.341370,492.534973 721.107117,485.053955 
	C720.996033,481.506592 721.890503,479.921997 725.941711,480.299652 
	C733.406006,480.995544 733.352783,480.752136 733.211060,488.458557 
	C733.094849,494.774719 733.187378,501.094727 733.187378,508.115356 
	C737.972900,508.115356 742.810181,508.115356 747.988831,508.115356 
	C747.988831,500.800659 748.346497,493.147400 747.876343,485.545319 
	C747.495728,479.390320 751.705566,480.585938 755.064941,480.168304 
	C759.023193,479.676239 760.118530,481.534973 760.096008,485.413055 
	C759.980652,505.225769 760.112427,525.040344 760.245728,544.853638 
	C760.264893,547.699646 759.568909,549.305359 756.335876,549.049194 
	C753.891296,548.855469 751.419006,549.010803 748.524475,549.010803 
	C748.524475,539.354065 748.524475,530.112366 748.524475,520.201111 
	C744.018799,520.201111 739.894409,519.918396 735.859924,520.395630 
	C734.823303,520.518250 733.351379,523.013550 733.306030,524.457397 
	C733.056274,532.415833 733.186646,540.386169 733.186646,548.009766 
	C732.381287,548.522095 732.114990,548.832092 731.825806,548.855164 
	C721.146301,549.706787 721.104919,549.703003 721.157837,538.968384 
	C721.207886,528.815186 721.356628,518.662476 721.462891,508.008728 
z"/>
<path fill="#191919" opacity="1.000000" stroke="none" 
	d="
M772.178894,539.663452 
	C771.283752,534.920166 770.040588,530.535339 769.906067,526.116638 
	C769.516113,513.305054 769.539490,500.480072 769.464294,487.660004 
	C769.422119,480.467773 769.488647,480.457886 776.677795,480.459625 
	C778.320862,480.460022 779.963867,480.459656 781.810303,480.459656 
	C781.810303,488.579803 781.791443,496.356781 781.815613,504.133636 
	C781.840332,512.113892 781.734619,520.101013 782.062134,528.069702 
	C782.158752,530.420044 783.014160,533.114685 784.426880,534.957886 
	C787.432739,538.879578 793.924011,537.288391 795.354004,531.923767 
	C796.745667,526.702942 797.228638,521.134033 797.344543,515.701660 
	C797.564697,505.384949 797.406555,495.050995 797.065247,484.735474 
	C796.901001,479.769745 800.160828,480.537079 803.039246,480.485199 
	C805.991821,480.431946 809.179382,479.810699 809.074951,484.707550 
	C808.751831,499.853455 808.926941,515.012573 808.442810,530.151611 
	C808.103943,540.747925 803.847534,546.158081 795.342224,548.403992 
	C785.683655,550.954285 777.508179,547.970032 772.178894,539.663452 
z"/>
<path fill="#141414" opacity="1.000000" stroke="none" 
	d="
M589.821289,543.675293 
	C589.821289,524.224243 589.927673,505.234100 589.743103,486.246826 
	C589.699341,481.737000 591.051941,479.876190 595.711853,480.414673 
	C598.835571,480.775635 602.036682,480.554321 605.199829,480.469147 
	C612.697266,480.267273 618.664429,483.011230 621.889526,489.953369 
	C625.296082,497.286316 625.720520,504.798889 620.770630,511.741364 
	C618.863831,514.415894 616.345886,516.654846 613.747437,519.483032 
	C618.297546,528.794495 622.986328,538.389771 628.171570,549.000977 
	C623.455139,549.000977 619.860840,549.262329 616.344604,548.853088 
	C615.181030,548.717712 613.852783,547.033997 613.224609,545.751953 
	C609.621948,538.399841 606.207031,530.955627 602.728455,523.542664 
	C602.302368,523.639099 601.876282,523.735535 601.450195,523.831909 
	C601.450195,531.993530 601.450195,540.155212 601.450195,548.657593 
	C597.426941,548.657593 594.017639,548.657593 590.116272,548.657593 
	C590.026001,547.274902 589.923584,545.706055 589.821289,543.675293 
M601.139465,495.215027 
	C601.138794,499.708801 601.272888,504.207916 601.096436,508.694763 
	C600.944763,512.551453 602.977112,512.847839 605.839478,511.955414 
	C610.017761,510.652771 611.764404,507.467499 612.309326,503.360413 
	C612.843506,499.333862 612.437988,495.456818 608.739929,493.190979 
	C606.264099,491.674042 602.950684,489.411560 601.139465,495.215027 
z"/>
<path fill="#151515" opacity="1.000000" stroke="none" 
	d="
M485.265686,485.754578 
	C493.817383,497.619934 492.300262,506.940399 479.881744,519.470581 
	C484.538727,528.940430 489.250885,538.522522 494.407593,549.008484 
	C490.048431,549.008484 486.889679,549.325195 483.843811,548.876160 
	C482.297150,548.648254 480.312927,547.364197 479.625183,546.002625 
	C475.840942,538.510803 472.396271,530.847534 468.835083,523.243042 
	C468.418518,523.299316 468.001953,523.355530 467.585388,523.411743 
	C467.585388,531.836609 467.585388,540.261414 467.585388,548.772705 
	C463.314301,548.772705 459.885437,548.772705 455.991425,548.772705 
	C455.991425,544.263123 455.991425,539.974915 455.991425,535.686707 
	C455.991425,519.369324 456.198578,503.047791 455.871094,486.736969 
	C455.766388,481.522827 457.481873,479.881134 462.444550,480.410675 
	C465.737946,480.762115 469.254578,479.851227 472.392365,480.629700 
	C476.728302,481.705322 480.801636,483.839447 485.265686,485.754578 
M467.459595,498.720886 
	C467.463928,502.360840 467.218658,506.029968 467.638245,509.621399 
	C467.750977,510.586487 469.990662,512.150940 471.076904,512.015930 
	C477.783569,511.182312 481.470795,501.286804 476.958740,495.438049 
	C475.439087,493.468201 472.029022,492.956726 469.482971,491.778717 
	C468.808563,493.782013 468.134155,495.785309 467.459595,498.720886 
z"/>
<path fill="#161616" opacity="1.000000" stroke="none" 
	d="
M851.009888,528.922241 
	C849.814819,541.645447 842.967346,547.949097 830.756348,548.011230 
	C818.145996,548.075378 818.145935,548.075317 818.145935,535.429138 
	C818.145935,520.441406 818.108521,505.453583 818.175171,490.466156 
	C818.189880,487.167114 818.574280,483.869720 818.857727,479.505157 
	C825.317200,480.131775 831.536072,479.980438 837.336914,481.463837 
	C847.603271,484.089203 852.220520,498.489563 846.105469,507.186646 
	C845.064514,508.667023 843.927673,510.079987 842.658630,511.757538 
	C848.846497,515.724060 850.760254,521.704407 851.009888,528.922241 
M830.514771,518.126892 
	C830.115356,524.262878 829.716003,530.398926 829.298340,536.816101 
	C836.672119,535.560852 839.048706,532.914062 838.845215,527.471313 
	C838.607666,521.118347 836.414307,518.308167 830.514771,518.126892 
M829.414307,498.515503 
	C829.414307,501.594727 829.414307,504.673950 829.414307,507.986572 
	C836.351440,505.593994 838.570801,502.634949 837.398193,497.391418 
	C836.517395,493.452972 834.470276,490.477325 829.414429,490.943268 
	C829.414429,493.328735 829.414429,495.452454 829.414307,498.515503 
z"/>
<path fill="#151515" opacity="1.000000" stroke="none" 
	d="
M414.175293,510.984131 
	C416.445068,500.687683 418.624329,490.806183 420.845703,480.733582 
	C424.846832,480.733582 428.610748,480.733582 432.622223,480.733582 
	C437.384521,502.983826 442.134216,525.175232 446.978302,547.807617 
	C443.358368,547.807617 440.113464,547.807617 436.129822,547.807617 
	C435.575562,536.817932 427.666840,538.255005 419.973297,539.262878 
	C416.611847,548.765137 416.611847,548.765137 406.068634,547.866394 
	C408.749023,535.672607 411.416870,523.535828 414.175293,510.984131 
M428.973724,517.517883 
	C428.271088,514.747681 427.568451,511.977478 426.865814,509.207275 
	C426.620605,509.236542 426.375427,509.265839 426.130219,509.295105 
	C424.847809,515.170288 423.565369,521.045471 422.200439,527.298523 
	C425.419189,527.298523 427.964447,527.298523 430.906586,527.298523 
	C430.244354,524.074646 429.655548,521.208252 428.973724,517.517883 
z"/>
<path fill="#181818" opacity="1.000000" stroke="none" 
	d="
M385.908600,517.190002 
	C381.131317,516.537415 379.342560,518.142883 379.778992,522.676147 
	C380.157471,526.607605 379.857697,530.604370 379.857697,535.146423 
	C384.093353,535.146423 388.033875,535.239868 391.968109,535.122681 
	C396.902161,534.975647 397.027374,538.184082 397.057739,541.800781 
	C397.086670,545.244324 397.070190,548.163696 392.294067,548.060425 
	C384.346497,547.888550 376.392487,548.013611 367.458466,548.013611 
	C367.458466,539.528076 367.399567,531.909363 367.471466,524.291870 
	C367.597168,510.975647 367.898590,497.660217 367.908478,484.344299 
	C367.910950,481.019104 369.055115,480.015839 372.277740,480.087708 
	C380.241241,480.265350 388.211334,480.145996 396.595215,480.145996 
	C396.595215,483.811401 396.595215,487.356140 396.595215,491.545074 
	C392.318909,491.545074 388.018799,491.597046 383.720764,491.524719 
	C381.305634,491.484100 379.930847,492.280029 379.993622,494.941437 
	C380.075500,498.411133 380.013672,501.884216 380.013672,505.772217 
	C385.378113,505.772217 390.483276,505.772217 395.473297,505.772217 
	C398.153290,516.305054 397.413513,517.190491 385.908600,517.190002 
z"/>
<path fill="#181818" opacity="1.000000" stroke="none" 
	d="
M578.070190,535.458496 
	C579.055115,539.039917 580.202759,542.470337 579.922424,545.779724 
	C579.843445,546.712036 575.606079,547.797852 573.227478,547.928467 
	C567.585083,548.238098 561.912659,547.953857 556.254211,548.036560 
	C553.104980,548.082581 551.259949,547.233704 551.285217,543.565063 
	C551.422668,523.592468 551.358948,503.618134 551.621399,483.647797 
	C551.636963,482.465759 553.851929,480.349976 555.104614,480.303070 
	C563.240173,479.998505 571.392761,480.146851 580.227417,480.146851 
	C580.380798,483.616486 580.536926,487.148621 580.731201,491.542114 
	C576.204102,491.542114 572.087036,491.686584 567.985962,491.492645 
	C565.131958,491.357635 563.523804,492.160522 563.570557,495.255157 
	C563.619934,498.529846 563.581665,501.805847 563.581665,505.813232 
	C567.818542,505.813232 571.925415,506.035950 575.996826,505.751404 
	C580.171448,505.459595 580.211304,508.025391 579.986511,510.841248 
	C579.771240,513.539124 581.274109,517.212585 576.165649,517.254700 
	C572.089233,517.288269 566.210693,516.356506 564.405701,518.548645 
	C562.208313,521.217346 563.427185,526.709839 563.199646,530.982483 
	C563.138245,532.135437 563.190308,533.294434 563.190308,535.261536 
	C568.187317,535.261536 572.939636,535.261536 578.070190,535.458496 
z"/>
<path fill="#181818" opacity="1.000000" stroke="none" 
	d="
M675.037659,508.967346 
	C678.852478,512.908325 682.914246,516.270813 685.777100,520.453918 
	C690.227783,526.957031 690.647461,534.230957 686.440125,541.133484 
	C682.246826,548.012939 675.473816,549.742615 667.903198,549.307617 
	C666.577026,549.231445 665.246521,549.120789 663.934937,548.917358 
	C654.187561,547.405457 652.690430,543.551208 658.818604,534.926392 
	C660.307983,535.894104 661.771729,536.944641 663.326538,537.836426 
	C667.667480,540.326233 673.633545,539.538025 676.052490,536.219299 
	C678.488892,532.876648 677.706238,526.889832 674.221924,523.465637 
	C669.960571,519.277893 665.399963,515.380859 661.304260,511.041412 
	C655.192871,504.566437 654.456299,496.056427 658.953003,488.600159 
	C663.077942,481.760193 671.416382,478.758545 679.795410,480.587219 
	C684.336914,481.578369 685.749512,483.530731 683.645935,487.792084 
	C682.859558,489.385071 682.289429,491.084839 681.532776,492.952881 
	C680.101257,492.436920 679.016174,492.120544 677.993958,491.663605 
	C674.740845,490.209442 671.344421,489.647369 668.818237,492.565491 
	C666.080322,495.728210 666.703430,499.559448 668.854919,502.758209 
	C670.392700,505.044464 672.753601,506.777039 675.037659,508.967346 
z"/>
<path fill="#151515" opacity="1.000000" stroke="none" 
	d="
M342.013000,548.858398 
	C337.906952,548.864868 334.295288,548.864868 330.256653,548.864868 
	C330.256653,526.117920 330.256653,503.734924 330.256653,480.796051 
	C332.434357,480.692200 334.709259,480.745850 336.935181,480.441345 
	C340.730133,479.922272 341.912506,481.651093 341.887543,485.202209 
	C341.812714,495.848358 341.915955,506.495697 341.937103,517.142578 
	C341.949951,523.602417 341.939484,530.062195 341.939484,536.992310 
	C347.247345,536.992310 352.316986,536.992310 358.273010,536.992310 
	C358.273010,540.358948 358.557251,543.318787 358.122345,546.168884 
	C357.965302,547.197876 356.134094,548.640625 354.978943,548.727661 
	C350.842133,549.039307 346.667603,548.851135 342.013000,548.858398 
z"/>
<path fill="#646464" opacity="1.000000" stroke="none" 
	d="
M181.283630,547.562683 
	C181.022903,547.034363 181.100037,546.619934 181.040558,546.562622 
	C183.706146,548.143494 184.696808,547.853577 184.906830,545.053711 
	C185.028229,543.435303 184.533783,541.771545 184.324081,540.127258 
	C183.728500,535.457336 183.198242,530.802551 188.054642,527.534912 
	C186.560623,526.648926 185.501373,526.020752 184.442108,525.392578 
	C184.648621,524.979309 184.855133,524.566040 185.061646,524.152832 
	C192.191132,527.495422 199.320602,530.838013 206.450089,534.180603 
	C206.204025,534.717896 205.957947,535.255188 205.711884,535.792480 
	C202.950607,534.538818 200.189316,533.285095 197.304871,531.975464 
	C193.826614,534.519348 192.171341,538.084534 193.667633,541.963684 
	C196.393097,549.029297 192.262222,553.289917 187.990509,557.355896 
	C183.623993,561.512024 178.747986,565.132874 173.790329,569.240540 
	C174.906464,566.006531 176.038879,562.725342 177.368134,558.873840 
	C173.016632,560.271973 168.798386,561.627319 163.761536,563.245667 
	C169.906342,557.454651 178.347473,555.873779 181.283630,547.562683 
z"/>
<path fill="#191919" opacity="1.000000" stroke="none" 
	d="
M635.742188,490.752441 
	C636.195435,487.926849 636.513489,485.462616 636.973206,483.025116 
	C638.418213,475.362122 638.541626,475.296356 647.230286,476.475128 
	C644.110046,482.686554 641.071777,488.734741 638.033508,494.782959 
	C637.467346,494.670105 636.901123,494.557220 636.334900,494.444366 
	C636.113892,493.338257 635.892822,492.232147 635.742188,490.752441 
z"/>
<path fill="#646464" opacity="1.000000" stroke="none" 
	d="
M221.885315,547.580444 
	C221.865906,551.152100 221.865906,554.302734 221.865906,557.572266 
	C219.086441,551.084167 219.396881,546.937134 223.044830,541.775391 
	C222.651016,543.635071 222.277863,545.397278 221.885315,547.580444 
z"/>
<path fill="#646464" opacity="1.000000" stroke="none" 
	d="
M207.493607,536.492249 
	C207.513199,536.491394 207.474014,536.493103 207.493607,536.492249 
z"/>
<path fill="#C9C9C9" opacity="1.000000" stroke="none" 
	d="
M265.118774,471.874084 
	C268.035065,473.040741 270.577026,474.111877 273.118988,475.183044 
	C272.972412,475.548431 272.825836,475.913849 272.679260,476.279236 
	C263.479431,472.801697 254.279572,469.324188 245.079727,465.846649 
	C245.228531,465.424072 245.377335,465.001526 245.526138,464.578949 
	C251.932236,466.978821 258.338318,469.378723 265.118774,471.874084 
z"/>
<path fill="#C9C9C9" opacity="1.000000" stroke="none" 
	d="
M179.154572,498.144379 
	C177.553741,505.405304 184.398895,505.618469 187.624390,509.277863 
	C184.156113,507.754913 180.687820,506.231964 176.962997,504.596375 
	C177.259598,502.269196 177.537781,500.086609 178.340027,497.883911 
	C178.864105,497.863770 179.154572,498.144379 179.154572,498.144379 
z"/>
<path fill="#646464" opacity="1.000000" stroke="none" 
	d="
M286.807739,482.372192 
	C286.463837,481.002960 286.439728,479.806152 286.415649,478.609375 
	C287.469788,478.686218 288.666138,478.486572 289.530914,478.931488 
	C290.168365,479.259399 290.372803,480.429047 290.770172,481.223633 
	C289.555969,481.663971 288.341766,482.104309 286.807739,482.372192 
z"/>
<path fill="#C9C9C9" opacity="1.000000" stroke="none" 
	d="
M202.243942,515.687134 
	C205.404144,516.522766 208.742203,517.686340 212.080261,518.849976 
	C211.856918,519.383545 211.633560,519.917114 211.410217,520.450684 
	C208.414078,518.972107 205.417938,517.493591 202.243942,515.687134 
z"/>
<path fill="#C9C9C9" opacity="1.000000" stroke="none" 
	d="
M277.981689,480.738647 
	C276.811554,479.002136 275.646484,477.628967 274.687439,476.498627 
	C279.414490,476.592560 281.249939,478.479248 279.478394,481.907288 
	C278.981171,481.638855 278.483948,481.370392 277.981689,480.738647 
z"/>
<path fill="#C9C9C9" opacity="1.000000" stroke="none" 
	d="
M195.077240,512.929871 
	C192.786758,511.784058 190.841217,510.784332 188.895676,509.784637 
	C189.010574,509.517059 189.125473,509.249451 189.240372,508.981873 
	C189.974197,509.180878 190.751511,509.284576 191.434052,509.595978 
	C193.938736,510.738617 196.411942,511.950256 198.580841,514.049438 
	C197.527954,513.724976 196.475067,513.400452 195.077240,512.929871 
z"/>
<path fill="#C9C9C9" opacity="1.000000" stroke="none" 
	d="
M233.591248,522.609924 
	C230.465500,522.982605 227.424622,522.982605 224.383728,522.982605 
	C224.403152,522.486023 224.422562,521.989380 224.441971,521.492798 
	C227.520020,521.740906 230.598053,521.989075 233.591248,522.609924 
z"/>
<path fill="#646464" opacity="1.000000" stroke="none" 
	d="
M228.256500,463.286072 
	C230.862762,463.235229 233.237778,462.968658 235.820251,462.678772 
	C234.055466,465.309265 228.776047,465.725037 227.182556,463.604675 
	C227.120041,463.521484 227.193497,463.200958 227.267349,463.175415 
	C227.503830,463.093658 227.770340,463.098694 228.256500,463.286072 
z"/>
<path fill="#C9C9C9" opacity="1.000000" stroke="none" 
	d="
M216.308380,522.622437 
	C216.137497,521.975708 216.278015,521.536438 216.418518,521.097168 
	C218.519897,521.890991 220.621262,522.684875 222.722641,523.478699 
	C222.676849,523.806702 222.631058,524.134644 222.585281,524.462646 
	C220.596786,523.918396 218.608292,523.374146 216.308380,522.622437 
z"/>
<path fill="#646464" opacity="1.000000" stroke="none" 
	d="
M230.477844,529.791138 
	C229.085236,530.349792 227.890289,530.631714 226.695328,530.913696 
	C226.620758,530.492065 226.546173,530.070435 226.471588,529.648743 
	C227.870819,529.589172 228.879761,526.721313 230.477844,529.791138 
z"/>
<path fill="#646464" opacity="1.000000" stroke="none" 
	d="
M275.481262,488.305603 
	C276.270569,487.949219 276.923004,487.857208 277.575439,487.765198 
	C277.350769,488.303436 277.126099,488.841675 276.901428,489.379944 
	C276.382416,489.109924 275.863403,488.839935 275.481262,488.305603 
z"/>
<path fill="#646464" opacity="1.000000" stroke="none" 
	d="
M269.596405,493.525452 
	C270.056610,493.580750 270.336609,493.809204 270.616608,494.037689 
	C270.431732,494.214874 270.246857,494.392059 270.061951,494.569214 
	C269.846710,494.278992 269.631470,493.988800 269.596405,493.525452 
z"/>
<path fill="#646464" opacity="1.000000" stroke="none" 
	d="
M249.530914,510.399658 
	C249.647614,509.944275 249.936127,509.668182 250.224640,509.392120 
	C250.339005,509.512146 250.559540,509.730255 250.552399,509.738007 
	C250.282227,510.030396 249.991074,510.303375 249.530914,510.399658 
z"/>
<path fill="#646464" opacity="1.000000" stroke="none" 
	d="
M187.468231,491.606171 
	C187.350815,492.062561 187.061295,492.339447 186.771759,492.616333 
	C186.656906,492.496216 186.542053,492.376099 186.427185,492.256012 
	C186.716827,491.979584 187.006470,491.703125 187.468231,491.606171 
z"/>
<path fill="#646464" opacity="1.000000" stroke="none" 
	d="
M265.470581,497.608215 
	C265.353424,498.064423 265.064331,498.341125 264.775269,498.617859 
	C264.660522,498.497833 264.545746,498.377808 264.430939,498.257812 
	C264.720184,497.981445 265.009430,497.705048 265.470581,497.608215 
z"/>
<path fill="#646464" opacity="1.000000" stroke="none" 
	d="
M259.395752,503.473389 
	C258.935669,503.417999 258.655731,503.189667 258.375824,502.961334 
	C258.560516,502.784058 258.745178,502.606812 258.929871,502.429535 
	C259.145233,502.719818 259.360565,503.010132 259.395752,503.473389 
z"/>
<path fill="#646464" opacity="1.000000" stroke="none" 
	d="
M254.041336,506.381073 
	C254.333267,506.742493 254.372543,507.101868 254.411835,507.461243 
	C254.155685,507.458801 253.899536,507.456390 253.643387,507.453949 
	C253.691818,507.095642 253.740250,506.737335 254.041336,506.381073 
z"/>
<path fill="#646464" opacity="1.000000" stroke="none" 
	d="
M241.613800,517.044800 
	C241.252457,517.336853 240.893402,517.376465 240.534348,517.416016 
	C240.536972,517.159790 240.539597,516.903503 240.542236,516.647278 
	C240.900192,516.695618 241.258133,516.743958 241.613800,517.044800 
z"/>
<path fill="#646464" opacity="1.000000" stroke="none" 
	d="
M245.395721,514.473572 
	C244.935623,514.418152 244.655685,514.189880 244.375763,513.961548 
	C244.560455,513.784302 244.745148,513.607117 244.929840,513.429871 
	C245.145203,513.720154 245.360550,514.010376 245.395721,514.473572 
z"/>
<path fill="#646464" opacity="1.000000" stroke="none" 
	d="
M286.049591,492.697144 
	C286.437531,492.571075 286.825439,492.445007 287.213379,492.318909 
	C286.982452,493.112427 286.751556,493.905945 286.294678,494.469391 
	C286.062286,493.725250 286.055939,493.211212 286.049591,492.697144 
z"/>
<path fill="#646464" opacity="1.000000" stroke="none" 
	d="
M223.521484,466.401337 
	C223.576279,465.941711 223.803543,465.662231 224.030792,465.382782 
	C224.207581,465.567352 224.384384,465.751892 224.561188,465.936432 
	C224.272110,466.151459 223.983032,466.366486 223.521484,466.401337 
z"/>
<path fill="#646464" opacity="1.000000" stroke="none" 
	d="
M220.381409,467.957428 
	C220.783218,467.711884 221.183792,467.713623 221.581985,467.745270 
	C221.594406,467.746277 221.582230,468.056793 221.581512,468.223022 
	C221.180954,468.218414 220.780396,468.213776 220.381409,467.957428 
z"/>
<path fill="#646464" opacity="1.000000" stroke="none" 
	d="
M213.380829,472.956970 
	C213.782593,472.711365 214.182800,472.712982 214.580719,472.744110 
	C214.592682,472.745056 214.580429,473.055328 214.579483,473.221375 
	C214.179306,473.217072 213.779144,473.212769 213.380829,472.956970 
z"/>
<path fill="#646464" opacity="1.000000" stroke="none" 
	d="
M211.471191,474.607361 
	C211.354950,475.061798 211.069611,475.340057 210.765915,475.596619 
	C210.757980,475.603302 210.550232,475.373413 210.435669,475.253845 
	C210.723663,474.978668 211.011642,474.703491 211.471191,474.607361 
z"/>
<path fill="#646464" opacity="1.000000" stroke="none" 
	d="
M207.613770,478.044495 
	C207.252319,478.336517 206.893143,478.376068 206.533951,478.415649 
	C206.536636,478.159454 206.539322,477.903259 206.542007,477.647034 
	C206.900009,477.695374 207.258011,477.743713 207.613770,478.044495 
z"/>
<path fill="#646464" opacity="1.000000" stroke="none" 
	d="
M203.381409,479.957428 
	C203.783218,479.711884 204.183792,479.713593 204.581985,479.745270 
	C204.594406,479.746277 204.582230,480.056793 204.581528,480.223022 
	C204.180954,480.218414 203.780396,480.213776 203.381409,479.957428 
z"/>
<path fill="#646464" opacity="1.000000" stroke="none" 
	d="
M197.610107,485.048157 
	C197.207138,485.294006 196.805481,485.292206 196.406097,485.261200 
	C196.394653,485.260284 196.407303,484.949127 196.408707,484.782623 
	C196.809723,484.787201 197.210754,484.791779 197.610107,485.048157 
z"/>
<path fill="#646464" opacity="1.000000" stroke="none" 
	d="
M194.045624,486.388885 
	C194.291748,486.792084 194.287231,487.191559 194.282700,487.591064 
	C194.117050,487.588318 193.807281,487.593597 193.806610,487.581696 
	C193.784500,487.183899 193.791885,486.784424 194.045624,486.388885 
z"/>
<path fill="#646464" opacity="1.000000" stroke="none" 
	d="
M190.469788,489.599579 
	C190.414001,490.059937 190.185516,490.340027 189.957001,490.620117 
	C189.780151,490.435242 189.603302,490.250366 189.426453,490.065491 
	C189.716675,489.850098 190.006882,489.634674 190.469788,489.599579 
z"/>
<path fill="#646464" opacity="1.000000" stroke="none" 
	d="
M172.640594,503.113281 
	C172.362518,502.840118 172.247681,502.433228 172.190384,502.018433 
	C172.180466,501.946533 172.414139,501.841034 172.535278,501.751038 
	C172.631287,502.159668 172.727310,502.568298 172.640594,503.113281 
z"/>
<path fill="#646464" opacity="1.000000" stroke="none" 
	d="
M234.707428,459.864197 
	C234.394852,460.057190 234.050247,460.031006 233.705658,460.004822 
	C233.778259,459.764740 233.850876,459.524628 233.923477,459.284546 
	C234.174133,459.404694 234.424774,459.524841 234.707428,459.864197 
z"/>
<path fill="#646464" opacity="1.000000" stroke="none" 
	d="
M200.882721,482.270569 
	C200.781784,482.750580 200.640594,483.002411 200.499390,483.254242 
	C200.358597,483.002686 200.053131,482.689117 200.118622,482.515259 
	C200.200607,482.297638 200.587280,482.194794 200.882721,482.270569 
z"/>
<path fill="#646464" opacity="1.000000" stroke="none" 
	d="
M183.357819,493.890747 
	C183.637680,494.165497 183.753189,494.573883 183.811050,494.990326 
	C183.821014,495.061981 183.585678,495.167725 183.463654,495.257721 
	C183.367096,494.847534 183.270538,494.437317 183.357819,493.890747 
z"/>
<path fill="#646464" opacity="1.000000" stroke="none" 
	d="
M217.641464,471.109863 
	C217.362793,470.836090 217.247772,470.428833 217.190277,470.013611 
	C217.180359,469.941956 217.414688,469.836487 217.536194,469.746643 
	C217.632324,470.155670 217.728455,470.564667 217.641464,471.109863 
z"/>
<path fill="#646464" opacity="1.000000" stroke="none" 
	d="
M237.890579,519.707581 
	C237.595032,519.791199 237.203339,519.699768 237.118301,519.486206 
	C237.049423,519.313171 237.349365,518.993408 237.485703,518.738708 
	C237.632782,518.985718 237.779861,519.232666 237.890579,519.707581 
z"/>
<path fill="#646464" opacity="1.000000" stroke="none" 
	d="
M230.761307,458.989075 
	C230.591721,459.101349 230.420578,459.046387 230.249435,458.991455 
	C230.419540,458.934906 230.589645,458.878387 230.761307,458.989075 
z"/>
<path fill="#646464" opacity="1.000000" stroke="none" 
	d="
M238.988617,463.234436 
	C239.102936,463.406860 239.047089,463.580933 238.991241,463.754974 
	C238.933655,463.582001 238.876068,463.409058 238.988617,463.234436 
z"/>
<path fill="#C9C9C9" opacity="1.000000" stroke="none" 
	d="
M243.090027,464.006409 
	C243.521072,464.241241 243.618713,464.462250 243.716370,464.683289 
	C243.312744,464.675507 242.909134,464.667694 242.505493,464.659912 
	C242.589203,464.437439 242.672913,464.215027 243.090027,464.006409 
z"/>
<path fill="#FFFFFF" opacity="1.000000" stroke="none" 
	d="
M285.840393,492.893066 
	C286.055939,493.211212 286.062286,493.725250 286.072906,494.630371 
	C286.077148,495.021423 285.750610,495.258057 285.571747,495.350403 
	C285.222382,495.252869 285.051910,495.063019 284.642670,494.572662 
	C284.813019,493.877747 285.222107,493.483337 285.840393,492.893066 
z"/>
<path fill="#646464" opacity="1.000000" stroke="none" 
	d="
M281.352325,484.266296 
	C281.367035,484.009003 281.504608,483.868530 281.642181,483.728088 
	C281.586517,483.946442 281.530853,484.164764 281.352325,484.266296 
z"/>
<path fill="#C9C9C9" opacity="1.000000" stroke="none" 
	d="
M200.723511,514.317749 
	C200.716843,514.587585 200.495651,514.649658 200.274475,514.711731 
	C200.352646,514.511169 200.430817,514.310608 200.723511,514.317749 
z"/>
<path fill="#C9C9C9" opacity="1.000000" stroke="none" 
	d="
M213.285538,520.305786 
	C213.578552,520.315186 213.645325,520.519714 213.712097,520.724182 
	C213.494492,520.649780 213.276901,520.575378 213.285538,520.305786 
z"/>
<path fill="#646464" opacity="1.000000" stroke="none" 
	d="
M274.551147,491.466064 
	C274.584930,491.522461 274.517334,491.409637 274.551147,491.466064 
z"/>
<path fill="#C9C9C9" opacity="1.000000" stroke="none" 
	d="
M178.722565,497.719757 
	C178.952728,497.434967 179.324417,497.294220 179.696106,497.153442 
	C179.691986,497.407318 179.687881,497.661163 179.419159,498.029724 
	C179.154572,498.144379 178.864105,497.863770 178.722565,497.719757 
z"/>
<path fill="#646464" opacity="1.000000" stroke="none" 
	d="
M237.533997,461.552917 
	C237.476624,461.587708 237.591385,461.518097 237.533997,461.552917 
z"/>
<path fill="#646464" opacity="1.000000" stroke="none" 
	d="
M225.550995,527.467346 
	C225.584641,527.523621 225.517349,527.411072 225.550995,527.467346 
z"/>
<path fill="#646464" opacity="1.000000" stroke="none" 
	d="
M278.550934,485.467438 
	C278.584625,485.523743 278.517242,485.411133 278.550934,485.467438 
z"/>
<path fill="#F1F1F1" opacity="1.000000" stroke="none" 
	d="
M601.153320,494.794556 
	C602.950684,489.411560 606.264099,491.674042 608.739929,493.190979 
	C612.437988,495.456818 612.843506,499.333862 612.309326,503.360413 
	C611.764404,507.467499 610.017761,510.652771 605.839478,511.955414 
	C602.977112,512.847839 600.944763,512.551453 601.096436,508.694763 
	C601.272888,504.207916 601.138794,499.708801 601.153320,494.794556 
z"/>
<path fill="#F1F1F1" opacity="1.000000" stroke="none" 
	d="
M467.459656,498.254730 
	C468.134155,495.785309 468.808563,493.782013 469.482971,491.778717 
	C472.029022,492.956726 475.439087,493.468201 476.958740,495.438049 
	C481.470795,501.286804 477.783569,511.182312 471.076904,512.015930 
	C469.990662,512.150940 467.750977,510.586487 467.638245,509.621399 
	C467.218658,506.029968 467.463928,502.360840 467.459656,498.254730 
z"/>
<path fill="#F1F1F1" opacity="1.000000" stroke="none" 
	d="
M830.936035,518.002197 
	C836.414307,518.308167 838.607666,521.118347 838.845215,527.471313 
	C839.048706,532.914062 836.672119,535.560852 829.298340,536.816101 
	C829.716003,530.398926 830.115356,524.262878 830.936035,518.002197 
z"/>
<path fill="#E5E5E5" opacity="1.000000" stroke="none" 
	d="
M829.414368,498.045837 
	C829.414429,495.452454 829.414429,493.328735 829.414429,490.943268 
	C834.470276,490.477325 836.517395,493.452972 837.398193,497.391418 
	C838.570801,502.634949 836.351440,505.593994 829.414307,507.986572 
	C829.414307,504.673950 829.414307,501.594727 829.414368,498.045837 
z"/>
<path fill="#E5E5E5" opacity="1.000000" stroke="none" 
	d="
M429.020233,517.929871 
	C429.655548,521.208252 430.244354,524.074646 430.906586,527.298523 
	C427.964447,527.298523 425.419189,527.298523 422.200439,527.298523 
	C423.565369,521.045471 424.847809,515.170288 426.130219,509.295105 
	C426.375427,509.265839 426.620605,509.236542 426.865814,509.207275 
	C427.568451,511.977478 428.271088,514.747681 429.020233,517.929871 
z"/>
</svg>